<!-- icon666.com - MILLIONS OF FREE VECTOR ICONS --><svg id="Layer_1" viewBox="0 0 512 512" xmlns="http://www.w3.org/2000/svg" data-name="Layer 1"><path d="m183.319 66.679h301.865c8.729 0 15.816 7.087 15.816 15.816v402.689c0 8.729-7.087 15.816-15.816 15.816h-301.866c-8.729 0-15.815-7.087-15.815-15.815v-402.69c0-8.729 7.087-15.816 15.816-15.816z" fill="#8a96bf"></path><g fill-rule="evenodd"><path d="m167.503 485.185v-320.487c0-6.805 2.426-12.661 7.237-17.472l73.31-73.309c4.812-4.811 10.668-7.237 17.473-7.237h219.662c5.508 0 10 4.492 10 10v406.505c0 6.609-5.391 12-12 12h-305.682c-5.506 0-10-4.492-10-10z" fill="#a8b4db"></path><path d="m111.824 429.506v-320.487c0-6.805 2.426-12.661 7.237-17.472l73.31-73.31c4.811-4.812 10.668-7.237 17.472-7.237h219.662c8.711 0 15.816 7.105 15.816 15.815v402.691c0 8.711-7.105 15.815-15.816 15.815h-301.866c-8.711 0-15.816-7.104-15.816-15.815z" fill="#8a96bf"></path><path d="m111.824 429.506v-320.487c0-6.805 2.426-12.661 7.237-17.472l73.31-73.31c4.812-4.811 10.668-7.237 17.472-7.237h219.662c5.508 0 10 4.492 10 10v406.506c0 6.609-5.391 12-12 12h-305.681c-5.506 0-10-4.492-10-10z" fill="#d2dbfa"></path><path d="m192.371 18.237c4.811-4.812 10.668-7.237 17.472-7.237h6.272c-8.99 3.709-15.359 12.579-15.359 22.867v50.254c0 8.709-7.103 15.813-15.812 15.813h-50.254c-10.286 0-19.158 6.369-22.867 15.359v-6.272c0-6.805 2.426-12.661 7.237-17.472z" fill="#8a96bf"></path><path d="m192.371 18.237c4.811-4.812 10.668-7.237 17.472-7.237h6.272c-7.646 1.416-20.757 8.732-20.757 22.867v50.254c0 5.73-4.684 10.415-10.414 10.415h-50.254c-6.807 0-18.704 2.786-22.867 20.757v-6.272c0-6.805 2.426-12.661 7.237-17.472z" fill="#a8b4db"></path></g><path d="m26.815 231.712h347.011c8.729 0 15.816 7.087 15.816 15.816v126.299c0 8.729-7.087 15.816-15.816 15.816h-347.01c-8.729 0-15.816-7.087-15.816-15.816v-126.3c0-8.729 7.087-15.815 15.815-15.815z" fill="#1ba342"></path><path d="m11.465 377.631c-.303-1.219-.465-2.493-.465-3.804v-126.299c0-8.711 7.104-15.816 15.815-15.816h340.815c5.508 0 10 4.492 10 10v123.919c0 6.608-5.392 12-12 12z" fill="#3bbe60" fill-rule="evenodd"></path><path d="m289.28 305.425c-2.312-.742-4.782-1.421-7.172-2.078-6.018-1.654-12.839-3.529-16.269-6.328-1.411-1.151-3.098-2.979-3.121-5.146-.019-1.628.928-3.34 2.662-4.821 6.857-5.855 25.053-5.336 32.997.944 3.466 2.739 8.497 2.151 11.237-1.315 2.739-3.467 2.15-8.497-1.315-11.237-14.143-11.178-40.547-11.455-53.308-.56-5.406 4.615-8.344 10.712-8.272 17.167.072 6.517 3.27 12.683 9.003 17.363 6.048 4.936 14.6 7.286 22.145 9.36 2.331.641 4.533 1.246 6.522 1.885 10.73 3.445 13.178 7.132 13.673 8.18.214.455.717 1.519-.214 3.86-.656 1.652-3.604 3.983-9.749 5.116-10.244 1.889-22.569-.918-27.477-6.26-2.988-3.253-8.049-3.468-11.304-.479-3.254 2.988-3.469 8.05-.479 11.304 7.895 8.595 20.9 12.021 32.466 12.021 3.413 0 6.702-.299 9.696-.851 10.979-2.025 18.691-7.332 21.716-14.943 2.287-5.755 2.223-11.494-.187-16.597-3.365-7.133-11.188-12.713-23.251-16.586v.002zm-57.206 32.979h-35.875v-63.458c0-4.418-3.582-8-8-8s-8 3.582-8 8v71.458c0 4.418 3.582 8 8 8h43.875c4.418 0 8-3.582 8-8s-3.582-8-8-8zm-71.527-58.308-25.729 30.579 25.729 30.579c2.845 3.381 2.41 8.428-.971 11.271-1.5 1.263-3.328 1.879-5.146 1.879-2.279 0-4.543-.969-6.125-2.85l-23.941-28.454-23.941 28.454c-1.582 1.881-3.846 2.85-6.125 2.85-1.818 0-3.646-.616-5.146-1.879-3.381-2.844-3.815-7.891-.971-11.271l25.729-30.579-25.729-30.579c-2.845-3.381-2.41-8.428.971-11.271 3.381-2.845 8.429-2.41 11.271.971l23.941 28.454 23.941-28.454c2.844-3.382 7.891-3.816 11.271-.971 3.381 2.844 3.815 7.891.971 11.271z" fill="#edeff3" fill-rule="evenodd"></path></svg>