<!-- icon666.com - MILLIONS OF FREE VECTOR ICONS --><svg id="Layer_1" enable-background="new 0 0 66 66" viewBox="0 0 66 66" xmlns="http://www.w3.org/2000/svg"><g><g><g><path d="m35.49 37.58c3.14-1.57 8.98-2.76 12.42-1.48-4.9 2.25-10.22 2.64-12.72 8.34-1.43 3.27-1.25 7.1.02 10.44s3.55 6.21 6.16 8.64c-8.5-.19-17-.37-25.5-.56-3.72-.08-6.57-.38-9.12-3.5-2.11-2.59-3.15-6.2-2.4-9.49.68-3.02 2.76-8.8 6.75-8.29 5.26.66 10.11 2.57 15.37.6 3.22-1.22 5.98-3.19 9.02-4.7z" fill="#f65b08"></path></g></g><g><g><path d="m33.74 45.32c-2.26 6.65.96 15.19 8.18 17.52 7 2.26 15.54.84 18.82-7.36 2.89-7.23-.9-16.81-9.61-18.78-2.34-.53-4.78-.59-7.1-.03-4.48 1.09-8.77 4.18-10.29 8.65z" fill="#15aa6d"></path></g></g><g><g><g><g><path d="m15.74 63.81c-2.64 0-5-.16-7.52-1.9-2.68-1.85-4.36-4.86-4.6-8.26-.25-3.53.99-7.41 3.6-11.22 1.48-2.16 3.24-4.14 4.94-6.04.84-.94 1.68-1.88 2.49-2.85 3.33-3.97 5-7.63 5.57-12.23.34-2.72.27-5.53.21-8.25-.05-1.86-.09-3.78-.01-5.68.02-.4.35-.71.76-.7.4.02.72.36.7.76-.08 1.85-.03 3.75.01 5.58.07 2.77.14 5.64-.22 8.47-.62 4.9-2.38 8.78-5.9 12.98-.82.98-1.67 1.93-2.52 2.88-1.67 1.87-3.4 3.81-4.83 5.9-1.69 2.47-3.64 6.25-3.35 10.29.21 2.95 1.66 5.57 3.98 7.16 2.43 1.67 4.7 1.66 7.57 1.64h.96 24.71c.4 0 .73.33.73.73s-.33.73-.73.73h-25.66c-.3.01-.6.01-.89.01z" fill="#6f1e3f"></path></g></g></g></g><g><g><g><g><path d="m46.99 36.88c-.2 0-.4-.08-.55-.24l-.37-.41c-.6-.67-1.03-1.15-1.68-1.93-3.52-4.2-5.29-8.09-5.9-12.98-.36-2.83-.29-5.7-.22-8.47.04-1.84.09-3.73.01-5.58-.02-.4.3-.74.7-.76s.74.3.76.7c.08 1.9.03 3.82-.01 5.68-.07 2.72-.14 5.53.21 8.25.58 4.6 2.24 8.26 5.57 12.23.64.76 1.06 1.24 1.65 1.89l.37.42c.27.3.24.76-.06 1.03-.13.11-.3.17-.48.17z" fill="#6f1e3f"></path></g></g></g></g><g><g><g><g><path d="m47.93 64.55c-2.11 0-4.23-.36-6.24-1.01-3.33-1.07-6.08-3.49-7.75-6.81-1.81-3.61-2.15-7.96-.9-11.64 1.49-4.37 5.62-7.87 10.8-9.12 2.32-.56 4.89-.55 7.44.03 4.07.92 7.4 3.49 9.37 7.25 2.05 3.9 2.33 8.58.76 12.52-2.51 6.27-7.91 8.78-13.48 8.78zm-13.5-18.99c-1.13 3.32-.82 7.25.82 10.51 1.49 2.97 3.94 5.13 6.89 6.08 6.67 2.15 14.8.85 17.91-6.93 1.42-3.55 1.16-7.77-.7-11.3-1.77-3.37-4.75-5.68-8.4-6.5-2.33-.53-4.67-.54-6.77-.03-4.68 1.13-8.42 4.26-9.75 8.17z" fill="#6f1e3f"></path></g></g></g></g><g><g><g><g><path d="m40.97 55.15c-.39 0-.71-.3-.73-.69l-.33-6.12c-.02-.4.29-.75.69-.77.41-.01.75.29.77.69l.33 6.12c.02.4-.29.75-.69.77-.01 0-.03 0-.04 0z" fill="#6f1e3f"></path></g></g></g></g><g><g><g><g><path d="m46.47 56.92c-.4 0-.73-.33-.73-.73v-12.65c0-.4.33-.73.73-.73s.73.33.73.73v12.65c0 .41-.32.73-.73.73z" fill="#6f1e3f"></path></g></g></g></g><g><g><g><g><path d="m52.25 56.52c-.4 0-.73-.33-.73-.73v-8.84c0-.4.33-.73.73-.73s.73.33.73.73v8.84c0 .4-.33.73-.73.73z" fill="#6f1e3f"></path></g></g></g></g><g><g><g><g><path d="m19.18 44.29c-3.62 0-7.23-.87-10.32-2.56-.35-.19-.48-.64-.29-.99s.64-.48.99-.29c4.93 2.71 11.31 3.14 16.66 1.14 1.95-.73 3.79-1.79 5.57-2.81 1.09-.63 2.22-1.27 3.37-1.85 3.53-1.76 6.96-2.26 10.19-1.49.39.09.63.49.54.88s-.48.64-.88.54c-2.89-.69-5.98-.23-9.2 1.37-1.12.56-2.23 1.19-3.3 1.81-1.83 1.05-3.72 2.14-5.79 2.91-2.37.9-4.96 1.34-7.54 1.34z" fill="#6f1e3f"></path></g></g></g></g><g><g><g><g><path d="m27.73 8.55c-2.02 0-5.02-.13-6.95-1.05-2.16-1.02-2.19-2.64-2.01-3.51.55-2.76 4.1-2.52 6.45-2.36.53.04 1.03.07 1.38.06l9.57-.23c.85-.02 1.92-.05 2.88.39.99.45 1.69 1.28 1.92 2.26.22.95-.03 1.93-.7 2.74-.86 1.05-1.93 1.13-2.87 1.2-.15.01-.3.02-.46.04-2.76.27-5.2.41-7.47.43l-.42.01c-.37.01-.81.02-1.32.02zm-6.33-2.37c2.11 1 5.96.92 7.6.89l.43-.01c2.23-.02 4.63-.16 7.35-.43.17-.02.33-.03.49-.04.93-.07 1.4-.13 1.85-.67.38-.46.52-.98.4-1.49-.13-.54-.53-1-1.1-1.26-.66-.3-1.46-.28-2.24-.26l-9.57.23c-.42.01-.93-.02-1.51-.06-2.43-.17-4.64-.2-4.91 1.19-.11.58-.07 1.3 1.21 1.91z" fill="#6f1e3f"></path></g></g></g></g><g><g><g><g><g><path d="m19.98 58.82c0 .09-.77.22-2.03.17-1.25-.05-3.07-.3-4.76-1.4-1.69-1.12-2.55-2.9-2.65-4.2-.12-1.33.36-2.06.41-2.02.12.03-.16.78.08 1.95.21 1.15 1.05 2.69 2.55 3.69 1.52.99 3.22 1.32 4.42 1.49 1.21.16 1.98.21 1.98.32z" fill="#813b57"></path></g></g></g></g></g><g><g><g><g><g><path d="m35.88 23.5c-.18.04-.82-2.04-.98-4.72-.17-2.68.22-4.83.4-4.81.2.02.13 2.15.3 4.76.14 2.62.48 4.73.28 4.77z" fill="#813b57"></path></g></g></g></g></g></g></svg>