<!-- icon666.com - MILLIONS OF FREE VECTOR ICONS --><svg id="Layer_1" enable-background="new 0 0 66 66" viewBox="0 0 66 66" xmlns="http://www.w3.org/2000/svg"><g><g><path d="m5.5 21h30v42h-30z" fill="#eceded"></path><path d="m35.5 50.55c-10-11.96-20 11.96-30 0 0-5.7 0-11.39 0-17.09 10 11.96 20-11.96 30 0z" fill="#92b1f9"></path><path d="m41.5 9h-30l-6 12h30z" fill="#d8dbcf"></path><path d="m41.5 9-6 12h12z" fill="#c4c6bd"></path><path d="m11.5 3h30v6h-30z" fill="#eceded"></path><path d="m47.5 35v-14h-12v42h9l-4-28z" fill="#dfdeed"></path><path d="m60.5 35h-20l1 7h18z" fill="#eceded"></path><path d="m41.5 42 3 21h12l3-21z" fill="#92b1f9"></path><path d="m53.5 53.5c0 1.66-1.34 3-3 3s-3-1.34-3-3 3-6 3-6 3 4.34 3 6z" fill="#fff"></path></g><g><g fill="#31352e"><path d="m61.07 34.51c-.14-.16-.35-.26-.57-.26h-12.25v-13.25c0-.11-.03-.22-.07-.32 0-.01 0-.01 0-.02l-5.93-11.84v-5.82c0-.41-.34-.75-.75-.75h-30c-.41 0-.75.34-.75.75v5.82l-5.92 11.84v.02c-.05.1-.07.2-.07.32v12.45 17.09 12.46c0 .41.34.75.75.75h51c.37 0 .69-.27.74-.64l4-28c.02-.22-.04-.44-.18-.6zm-2.22 6.74h-16.7l-.79-5.5h18.27zm-52.6-19.5h28.5v9.84c-4.99-4.54-10.09-1.49-14.64 1.22-5.01 2.99-9.34 5.57-13.86.35zm0 13.58c4.99 4.54 10.09 1.49 14.63-1.23 5.01-3 9.34-5.59 13.87-.37v14.94c-4.99-4.54-10.09-1.49-14.64 1.23-5.01 2.99-9.34 5.59-13.86.37zm30.46-15.08 4.79-9.57 4.79 9.57zm4.04-16.5v4.5h-28.5v-4.5zm-28.79 6h28.32l-5.25 10.5h-28.32zm-5.71 42.65c1.85 1.68 3.72 2.34 5.56 2.34 3.13 0 6.21-1.84 9.07-3.55 5.01-3 9.34-5.57 13.86-.35v11.41h-28.49zm30-1.85v-17.1-11.7h10.5v12.5h-6.25c-.22 0-.42.09-.57.26-.14.16-.21.38-.18.6l3.88 27.14h-7.39v-11.7zm19.6 11.7h-10.7l-2.79-19.5h16.27z"></path><path d="m49.88 47.07c-.52.76-3.13 4.63-3.13 6.43 0 2.07 1.68 3.75 3.75 3.75s3.75-1.68 3.75-3.75c0-1.8-2.61-5.67-3.13-6.43-.28-.4-.96-.4-1.24 0zm.62 8.68c-1.24 0-2.25-1.01-2.25-2.25 0-.82 1.17-2.96 2.25-4.64 1.08 1.69 2.25 3.82 2.25 4.64 0 1.24-1.01 2.25-2.25 2.25z"></path></g></g></g></svg>